# xmcd CD database file
#
# Track frame offsets:
#	150
#	6743
#	28140
#	41864
#	66229
#	76865
#	87807
#	101918
#	115807
#
# Disc length: 1862 seconds
#
# Revision: 4
# Processed by: cddbd v1.5.2PL0 Copyright (c) Steve Scherf et al.
# Submitted via: CDex 1.73
#
DISCID=76074409
DTITLE=Mucc - 6
DYEAR=2006
DGENRE=JRock
TTITLE0=666
TTITLE1=Kuukyo na heye
TTITLE2=Akai sora
TTITLE3=Haribote no Otona
TTITLE4=Forty Sx
TTITLE5=Kami no Hoshi
TTITLE6=Haru, Kaze no Fuita Hi
TTITLE7=Yuu beni
TTITLE8=Haruka
EXTD=YEAR: 2006
EXTT0=
EXTT1=
EXTT2=
EXTT3=
EXTT4=
EXTT5=
EXTT6=
EXTT7=
EXTT8=
PLAYORDER=
